<?xml version="1.0" encoding="UTF-8"?>
<!DOCTYPE svg PUBLIC "-//W3C//DTD SVG 1.1//EN" "http://www.w3.org/Graphics/SVG/1.1/DTD/svg11.dtd">
<svg xmlns="http://www.w3.org/2000/svg" version="1.1" width="452px" height="742px"
   style="shape-rendering:geometricPrecision; text-rendering:geometricPrecision; image-rendering:optimizeQuality; fill-rule:evenodd; clip-rule:evenodd"
   xmlns:xlink="http://www.w3.org/1999/xlink">
   <g>
      <path style="opacity:1" fill="#95c8eb"
         d="M 238.5,5.5 C 230.381,5.1141 222.381,5.78077 214.5,7.5C 216.148,6.07346 218.148,5.24013 220.5,5C 226.681,4.18079 232.681,4.34745 238.5,5.5 Z" />
   </g>
   <g>
      <path style="opacity:0.008" fill="#95c8eb"
         d="M 238.5,5.5 C 240.898,5.25939 242.898,5.92606 244.5,7.5C 242.214,7.40505 240.214,6.73838 238.5,5.5 Z" />
   </g>
   <g>
      <path style="opacity:0.973" fill="#95c8eb"
         d="M 214.5,7.5 C 214.027,8.90632 213.027,9.57298 211.5,9.5C 211.973,8.09368 212.973,7.42702 214.5,7.5 Z" />
   </g>
   <g>
      <path style="opacity:0.204" fill="#95c8eb"
         d="M 244.5,7.5 C 246.027,7.42702 247.027,8.09368 247.5,9.5C 245.973,9.57298 244.973,8.90632 244.5,7.5 Z" />
   </g>
   <g>
      <path style="opacity:1" fill="#fdfdfd"
         d="M 254.5,72.5 C 253.043,77.598 252.376,82.9313 252.5,88.5C 252.816,93.8444 253.316,99.1778 254,104.5C 265.001,115.25 278.167,121.583 293.5,123.5C 305.812,127.473 315.145,135.14 321.5,146.5C 322.756,149.767 323.923,153.101 325,156.5C 325.717,166.682 325.551,176.849 324.5,187C 326.801,200.773 328.634,214.606 330,228.5C 334.327,242.149 338.66,255.815 343,269.5C 343.153,292.401 345.487,315.067 350,337.5C 355.365,341.019 360.365,345.019 365,349.5C 366.812,355.04 367.979,360.707 368.5,366.5C 367.178,366.67 366.011,366.337 365,365.5C 363.873,362.623 363.206,359.623 363,356.5C 361.981,355.313 360.814,354.313 359.5,353.5C 358.334,360.516 358.5,367.516 360,374.5C 362.901,382.537 365.401,390.704 367.5,399C 366.407,402.083 365.24,401.917 364,398.5C 361.392,390.675 358.392,383.009 355,375.5C 353.556,373.845 351.722,373.178 349.5,373.5C 350.826,382.621 351.826,391.788 352.5,401C 352.167,403.833 351.833,406.667 351.5,409.5C 350.914,409.291 350.414,408.957 350,408.5C 349.313,397.5 347.48,386.833 344.5,376.5C 343.081,375.549 341.415,375.216 339.5,375.5C 339.5,386.167 339.5,396.833 339.5,407.5C 338.673,408.439 338.006,408.105 337.5,406.5C 337.867,399.585 337.201,392.919 335.5,386.5C 335.5,382.833 335.5,379.167 335.5,375.5C 333.5,375.5 331.5,375.5 329.5,375.5C 328.442,376.6 327.608,377.934 327,379.5C 326.817,376.635 326.317,373.969 325.5,371.5C 325.025,367.857 324.692,364.19 324.5,360.5C 325.208,354.481 325.708,348.481 326,342.5C 323.822,334.787 321.488,327.12 319,319.5C 313.212,306.802 308.212,293.802 304,280.5C 301.097,257.224 296.764,234.224 291,211.5C 290.257,224.883 287.59,237.883 283,250.5C 282.677,267.207 283.344,283.874 285,300.5C 288.197,327.494 291.53,354.494 295,381.5C 296.539,414.936 292.205,447.603 282,479.5C 279.669,499.574 280.002,519.574 283,539.5C 284.218,556.309 283.218,572.975 280,589.5C 276.509,603.797 273.176,618.131 270,632.5C 266.393,653.266 266.726,673.933 271,694.5C 273.812,700.79 277.145,706.79 281,712.5C 282.628,716.325 282.795,720.158 281.5,724C 275.861,725.647 270.194,726.147 264.5,725.5C 261.326,727.969 257.993,728.136 254.5,726C 248.303,719.077 245.469,710.91 246,701.5C 244.726,697.894 242.393,695.227 239,693.5C 238.015,691.634 237.515,689.634 237.5,687.5C 238.353,683.437 239.52,679.437 241,675.5C 242.665,664.32 243.831,652.987 244.5,641.5C 244.275,622.602 242.108,603.935 238,585.5C 237.05,567.349 238.217,549.349 241.5,531.5C 239.043,521.612 236.876,511.612 235,501.5C 235.667,458.164 235.167,414.831 233.5,371.5C 230.634,372.795 227.801,372.795 225,371.5C 223.842,414.838 223.509,458.172 224,501.5C 222.849,509.087 220.849,516.42 218,523.5C 217.833,526 217.667,528.5 217.5,531C 220.758,549.018 221.924,567.185 221,585.5C 216.649,604.409 214.483,623.576 214.5,643C 216.066,653.736 217.233,664.569 218,675.5C 219.48,679.437 220.647,683.437 221.5,687.5C 221.563,692.272 219.396,695.606 215,697.5C 212.905,702.577 211.905,707.91 212,713.5C 210.266,717.57 208.1,721.403 205.5,725C 201.929,728.043 198.262,728.21 194.5,725.5C 188.709,726.876 183.042,726.376 177.5,724C 176.205,720.158 176.372,716.325 178,712.5C 188.038,698.35 192.538,682.516 191.5,665C 191.56,654.097 190.726,643.264 189,632.5C 185.824,618.131 182.491,603.797 179,589.5C 174.92,569.537 174.587,549.537 178,529.5C 178.833,512.806 178.499,496.139 177,479.5C 166.683,447.3 162.35,414.3 164,380.5C 167.599,353.847 170.932,327.181 174,300.5C 175.616,283.863 176.282,267.197 176,250.5C 171.506,237.869 168.84,224.869 168,211.5C 165.336,222.822 162.67,234.155 160,245.5C 159.047,257.269 157.38,268.936 155,280.5C 150.788,293.802 145.788,306.802 140,319.5C 137.514,327.109 135.181,334.776 133,342.5C 133.292,348.481 133.792,354.481 134.5,360.5C 134.308,364.19 133.975,367.857 133.5,371.5C 132.686,373.631 132.186,375.964 132,378.5C 131.148,377.429 130.315,376.429 129.5,375.5C 127.5,375.5 125.5,375.5 123.5,375.5C 123.291,385.845 122.791,396.178 122,406.5C 121.329,407.252 120.496,407.586 119.5,407.5C 119.5,396.833 119.5,386.167 119.5,375.5C 117.585,375.216 115.919,375.549 114.5,376.5C 111.52,386.836 109.686,397.503 109,408.5C 108.586,408.957 108.086,409.291 107.5,409.5C 106.095,398.722 106.762,388.055 109.5,377.5C 108.687,373.5 106.853,372.833 104,375.5C 100.39,383.721 97.0565,392.054 94,400.5C 92.5135,401.741 91.6801,401.241 91.5,399C 93.6044,390.688 96.1044,382.522 99,374.5C 100.353,367.208 100.686,359.875 100,352.5C 98.6667,353.833 97.3333,355.167 96,356.5C 95.7935,359.623 95.1268,362.623 94,365.5C 92.9887,366.337 91.8221,366.67 90.5,366.5C 90.8266,360.207 92.3266,354.207 95,348.5C 99.3797,344.452 104.046,340.785 109,337.5C 113.485,315.063 115.818,292.396 116,269.5C 120.34,255.815 124.673,242.149 129,228.5C 130.412,214.45 132.245,200.45 134.5,186.5C 133.411,176.854 133.245,167.188 134,157.5C 140.219,135.624 154.719,123.458 177.5,121C 187.845,117.413 197.012,111.913 205,104.5C 207.352,92.6926 206.852,81.0259 203.5,69.5C 201.958,70.7468 200.458,70.7468 199,69.5C 196.787,64.6955 195.287,59.6955 194.5,54.5C 196.722,54.178 198.556,54.8446 200,56.5C 198.797,46.7268 199.464,37.0601 202,27.5C 212.363,8.04453 227.196,3.54453 246.5,14C 251.146,17.6419 254.646,22.1419 257,27.5C 258.225,37.1074 258.892,46.7741 259,56.5C 261.486,53.2038 263.319,53.2038 264.5,56.5C 262.95,61.1435 261.617,65.8102 260.5,70.5C 258.738,70.6427 257.071,70.3094 255.5,69.5C 254.614,70.325 254.281,71.325 254.5,72.5 Z" />
   </g>
   <g>
      <path style="opacity:0.016" fill="#95c8eb"
         d="M 247.5,9.5 C 249.027,9.42702 250.027,10.0937 250.5,11.5C 248.973,11.573 247.973,10.9063 247.5,9.5 Z" />
   </g>
   <g>
      <path style="opacity:0.973" fill="#95c8eb"
         d="M 211.5,9.5 C 208.833,12.8333 205.833,15.8333 202.5,18.5C 204.5,14.5 207.5,11.5 211.5,9.5 Z" />
   </g>
   <g>
      <path style="opacity:0.333" fill="#95c8eb"
         d="M 252.5,13.5 C 254.587,14.5846 255.92,16.2512 256.5,18.5C 254.413,17.4154 253.08,15.7488 252.5,13.5 Z" />
   </g>
   <g>
      <path style="opacity:0.216" fill="#95c8eb"
         d="M 202.5,18.5 C 202.573,20.0269 201.906,21.0269 200.5,21.5C 200.427,19.9731 201.094,18.9731 202.5,18.5 Z" />
   </g>
   <g>
      <path style="opacity:0.192" fill="#95c8eb"
         d="M 256.5,18.5 C 257.906,18.9731 258.573,19.9731 258.5,21.5C 257.094,21.0269 256.427,20.0269 256.5,18.5 Z" />
   </g>
   <g>
      <path style="opacity:1" fill="#95c8eb"
         d="M 199.5,23.5 C 199.277,27.1621 198.277,30.4954 196.5,33.5C 196.723,29.8379 197.723,26.5046 199.5,23.5 Z" />
   </g>
   <g>
      <path style="opacity:0.869" fill="#95c8eb"
         d="M 259.5,23.5 C 262.752,30.3465 264.252,37.6799 264,45.5C 264.989,47.9698 266.155,50.3032 267.5,52.5C 266.18,51.0582 264.514,50.3915 262.5,50.5C 263.031,41.3011 262.031,32.3011 259.5,23.5 Z" />
   </g>
   <g>
      <path style="opacity:0.976" fill="#95c8eb"
         d="M 196.5,33.5 C 197.117,39.5982 196.45,45.2649 194.5,50.5C 195.301,48.9582 195.634,47.2915 195.5,45.5C 195.183,41.2984 195.517,37.2984 196.5,33.5 Z" />
   </g>
   <g>
      <path style="opacity:0.371" fill="#95c8eb"
         d="M 195.5,45.5 C 195.634,47.2915 195.301,48.9582 194.5,50.5C 193.5,51.1667 192.5,51.8333 191.5,52.5C 192.874,50.1417 194.207,47.8083 195.5,45.5 Z" />
   </g>
   <g>
      <path style="opacity:0.008" fill="#95c8eb"
         d="M 191.5,52.5 C 191.244,58.7246 192.244,64.7246 194.5,70.5C 190.743,64.8988 189.743,58.8988 191.5,52.5 Z" />
   </g>
   <g>
      <path style="opacity:0.008" fill="#95c8eb"
         d="M 267.5,52.5 C 268.16,53.964 268.493,55.6307 268.5,57.5C 268.618,60.4857 267.952,63.1524 266.5,65.5C 267.2,61.2022 267.533,56.8689 267.5,52.5 Z" />
   </g>
   <g>
      <path style="opacity:0.639" fill="#95c8eb"
         d="M 266.5,65.5 C 266.598,67.5529 265.931,69.2196 264.5,70.5C 264.402,68.4471 265.069,66.7804 266.5,65.5 Z" />
   </g>
   <g>
      <path style="opacity:1" fill="#95c8eb"
         d="M 261.5,74.5 C 260.878,75.6266 260.045,76.6266 259,77.5C 257.947,85.802 257.447,94.1353 257.5,102.5C 256.334,93.322 256.334,83.9887 257.5,74.5C 258.833,74.5 260.167,74.5 261.5,74.5 Z" />
   </g>
   <g>
      <path style="opacity:1" fill="#95c8eb"
         d="M 197.5,74.5 C 198.833,74.5 200.167,74.5 201.5,74.5C 202.735,83.9812 202.735,93.3145 201.5,102.5C 201.553,94.1353 201.053,85.802 200,77.5C 198.955,76.6266 198.122,75.6266 197.5,74.5 Z" />
   </g>
   <g>
      <path style="opacity:0.49" fill="#95c8eb"
         d="M 257.5,102.5 C 263.281,106.229 269.281,109.729 275.5,113C 282.571,115.632 289.571,118.132 296.5,120.5C 281.526,118.509 268.526,112.509 257.5,102.5 Z" />
   </g>
   <g>
      <path style="opacity:0.114" fill="#95c8eb"
         d="M 201.5,102.5 C 190.405,112.324 177.405,118.324 162.5,120.5C 169.429,118.132 176.429,115.632 183.5,113C 189.719,109.729 195.719,106.229 201.5,102.5 Z" />
   </g>
   <g>
      <path style="opacity:0.808" fill="#95c8eb"
         d="M 156.5,122.5 C 156.027,123.906 155.027,124.573 153.5,124.5C 153.973,123.094 154.973,122.427 156.5,122.5 Z" />
   </g>
   <g>
      <path style="opacity:0.878" fill="#95c8eb"
         d="M 151.5,125.5 C 151.027,126.906 150.027,127.573 148.5,127.5C 148.973,126.094 149.973,125.427 151.5,125.5 Z" />
   </g>
   <g>
      <path style="opacity:0.71" fill="#95c8eb"
         d="M 309.5,126.5 C 311.754,127.124 313.421,128.457 314.5,130.5C 312.205,129.864 310.539,128.531 309.5,126.5 Z" />
   </g>
   <g>
      <path style="opacity:0.973" fill="#95c8eb"
         d="M 148.5,127.5 C 147.415,129.587 145.749,130.92 143.5,131.5C 144.585,129.413 146.251,128.08 148.5,127.5 Z" />
   </g>
   <g>
      <path style="opacity:0.992" fill="#95c8eb"
         d="M 143.5,131.5 C 142.581,134.089 140.914,136.089 138.5,137.5C 139.419,134.911 141.086,132.911 143.5,131.5 Z" />
   </g>
   <g>
      <path style="opacity:1" fill="#95c8eb"
         d="M 296.5,120.5 C 301.443,121.361 305.776,123.361 309.5,126.5C 310.539,128.531 312.205,129.864 314.5,130.5C 316.167,131.5 317.5,132.833 318.5,134.5C 318.427,136.027 319.094,137.027 320.5,137.5C 321.906,137.973 322.573,138.973 322.5,140.5C 322.427,142.027 323.094,143.027 324.5,143.5C 325.931,144.78 326.598,146.447 326.5,148.5C 325.034,147.653 324.2,146.32 324,144.5C 323.005,145.066 322.172,145.733 321.5,146.5C 315.145,135.14 305.812,127.473 293.5,123.5C 295.288,123.785 296.955,123.452 298.5,122.5C 297.757,121.818 297.091,121.151 296.5,120.5 Z" />
   </g>
   <g>
      <path style="opacity:0.612" fill="#95c8eb"
         d="M 318.5,134.5 C 319.906,134.973 320.573,135.973 320.5,137.5C 319.094,137.027 318.427,136.027 318.5,134.5 Z" />
   </g>
   <g>
      <path style="opacity:0.337" fill="#95c8eb"
         d="M 136.5,140.5 C 136.573,142.027 135.906,143.027 134.5,143.5C 134.427,141.973 135.094,140.973 136.5,140.5 Z" />
   </g>
   <g>
      <path style="opacity:0.337" fill="#95c8eb"
         d="M 322.5,140.5 C 323.906,140.973 324.573,141.973 324.5,143.5C 323.094,143.027 322.427,142.027 322.5,140.5 Z" />
   </g>
   <g>
      <path style="opacity:1" fill="#95c8eb"
         d="M 134.5,143.5 C 134.834,146.491 133.834,148.824 131.5,150.5C 131.935,147.843 132.935,145.509 134.5,143.5 Z" />
   </g>
   <g>
      <path style="opacity:1" fill="#95c8eb"
         d="M 326.5,148.5 C 328.41,151.452 329.41,154.786 329.5,158.5C 327.723,155.495 326.723,152.162 326.5,148.5 Z" />
   </g>
   <g>
      <path style="opacity:0.839" fill="#95c8eb"
         d="M 131.5,150.5 C 131.706,153.495 131.04,156.162 129.5,158.5C 129.565,155.572 130.232,152.905 131.5,150.5 Z" />
   </g>
   <g>
      <path style="opacity:0.088" fill="#95c8eb"
         d="M 129.5,158.5 C 129.334,167.685 129.668,176.852 130.5,186C 130.328,190.384 129.662,194.551 128.5,198.5C 128.552,185.027 128.886,171.693 129.5,158.5 Z" />
   </g>
   <g>
      <path style="opacity:0.29" fill="#95c8eb"
         d="M 329.5,182.5 C 329.833,187.833 330.167,193.167 330.5,198.5C 328.689,193.221 328.356,187.888 329.5,182.5 Z" />
   </g>
   <g>
      <path style="opacity:1" fill="#95c8eb"
         d="M 331.5,205.5 C 333.222,212.937 334.222,220.604 334.5,228.5C 332.614,221.084 331.614,213.417 331.5,205.5 Z" />
   </g>
   <g>
      <path style="opacity:0.937" fill="#95c8eb"
         d="M 127.5,205.5 C 127.556,210.731 126.889,215.731 125.5,220.5C 125.444,215.269 126.111,210.269 127.5,205.5 Z" />
   </g>
   <g>
      <path style="opacity:0.258" fill="#95c8eb"
         d="M 124.5,228.5 C 124.568,232.57 123.568,236.237 121.5,239.5C 122.055,235.603 123.055,231.937 124.5,228.5 Z" />
   </g>
   <g>
      <path style="opacity:0.257" fill="#95c8eb"
         d="M 334.5,228.5 C 335.945,231.937 336.945,235.603 337.5,239.5C 335.432,236.237 334.432,232.57 334.5,228.5 Z" />
   </g>
   <g>
      <path style="opacity:0.118" fill="#95c8eb"
         d="M 337.5,239.5 C 338.931,240.78 339.598,242.447 339.5,244.5C 338.069,243.22 337.402,241.553 337.5,239.5 Z" />
   </g>
   <g>
      <path style="opacity:1" fill="#95c8eb"
         d="M 121.5,239.5 C 121.218,243.68 119.885,247.347 117.5,250.5C 118.065,246.463 119.399,242.797 121.5,239.5 Z" />
   </g>
   <g>
      <path style="opacity:1" fill="#95c8eb"
         d="M 339.5,244.5 C 340.738,246.214 341.405,248.214 341.5,250.5C 339.72,249.01 339.054,247.01 339.5,244.5 Z" />
   </g>
   <g>
      <path style="opacity:1" fill="#95c8eb"
         d="M 341.5,250.5 C 342.931,251.78 343.598,253.447 343.5,255.5C 341.787,254.365 341.12,252.698 341.5,250.5 Z" />
   </g>
   <g>
      <path style="opacity:1" fill="#95c8eb"
         d="M 117.5,250.5 C 117.655,253.716 116.655,256.383 114.5,258.5C 114.733,255.458 115.733,252.792 117.5,250.5 Z" />
   </g>
   <g>
      <path style="opacity:0.639" fill="#95c8eb"
         d="M 114.5,258.5 C 114.829,261.228 114.163,263.562 112.5,265.5C 112.41,262.848 113.076,260.515 114.5,258.5 Z" />
   </g>
   <g>
      <path style="opacity:0.639" fill="#95c8eb"
         d="M 344.5,258.5 C 345.924,260.515 346.59,262.848 346.5,265.5C 344.837,263.562 344.171,261.228 344.5,258.5 Z" />
   </g>
   <g>
      <path style="opacity:0.475" fill="#95c8eb"
         d="M 112.5,265.5 C 112.077,278.001 111.41,290.334 110.5,302.5C 110.5,298.833 110.5,295.167 110.5,291.5C 110.197,282.611 110.863,273.944 112.5,265.5 Z" />
   </g>
   <g>
      <path style="opacity:0.063" fill="#95c8eb"
         d="M 110.5,291.5 C 110.5,295.167 110.5,298.833 110.5,302.5C 110.749,306.458 110.082,310.124 108.5,313.5C 108.626,305.972 109.293,298.639 110.5,291.5 Z" />
   </g>
   <g>
      <path style="opacity:0.063" fill="#95c8eb"
         d="M 347.5,274.5 C 348.763,287.33 349.763,300.33 350.5,313.5C 348.982,309.434 348.149,305.101 348,300.5C 347.5,291.84 347.334,283.173 347.5,274.5 Z" />
   </g>
   <g>
      <path style="opacity:0.239" fill="#95c8eb"
         d="M 351.5,320.5 C 352.807,325.316 353.807,330.316 354.5,335.5C 352.125,330.911 351.125,325.911 351.5,320.5 Z" />
   </g>
   <g>
      <path style="opacity:1" fill="#95c8eb"
         d="M 107.5,320.5 C 107.875,325.911 106.875,330.911 104.5,335.5C 105.193,330.316 106.193,325.316 107.5,320.5 Z" />
   </g>
   <g>
      <path style="opacity:0.906" fill="#95c8eb"
         d="M 104.5,335.5 C 104.027,336.906 103.027,337.573 101.5,337.5C 101.973,336.094 102.973,335.427 104.5,335.5 Z" />
   </g>
   <g>
      <path style="opacity:0.173" fill="#95c8eb"
         d="M 354.5,335.5 C 356.027,335.427 357.027,336.094 357.5,337.5C 355.973,337.573 354.973,336.906 354.5,335.5 Z" />
   </g>
   <g>
      <path style="opacity:0.024" fill="#95c8eb"
         d="M 357.5,337.5 C 359.027,337.427 360.027,338.094 360.5,339.5C 358.973,339.573 357.973,338.906 357.5,337.5 Z" />
   </g>
   <g>
      <path style="opacity:0.949" fill="#95c8eb"
         d="M 101.5,337.5 C 101.027,338.906 100.027,339.573 98.5,339.5C 98.9731,338.094 99.9731,337.427 101.5,337.5 Z" />
   </g>
   <g>
      <path style="opacity:0.035" fill="#95c8eb"
         d="M 360.5,339.5 C 362.404,339.738 363.738,340.738 364.5,342.5C 362.596,342.262 361.262,341.262 360.5,339.5 Z" />
   </g>
   <g>
      <path style="opacity:0.737" fill="#95c8eb"
         d="M 98.5,339.5 C 96.5,342.167 94.1667,344.5 91.5,346.5C 92.8333,343.167 95.1667,340.833 98.5,339.5 Z" />
   </g>
   <g>
      <path style="opacity:1" fill="#95c8eb"
         d="M 90.5,348.5 C 90.8799,350.698 90.2132,352.365 88.5,353.5C 88.4021,351.447 89.0687,349.78 90.5,348.5 Z" />
   </g>
   <g>
      <path style="opacity:1" fill="#95c8eb"
         d="M 368.5,348.5 C 369.931,349.78 370.598,351.447 370.5,353.5C 368.787,352.365 368.12,350.698 368.5,348.5 Z" />
   </g>
   <g>
      <path style="opacity:1" fill="#95c8eb"
         d="M 87.5,357.5 C 87.5,361.5 87.5,365.5 87.5,369.5C 85.1464,365.544 85.1464,361.544 87.5,357.5 Z" />
   </g>
   <g>
      <path style="opacity:1" fill="#95c8eb"
         d="M 371.5,357.5 C 372.466,359.792 373.133,362.292 373.5,365C 373.475,366.876 372.809,368.376 371.5,369.5C 371.5,365.5 371.5,361.5 371.5,357.5 Z" />
   </g>
   <g>
      <path style="opacity:0.047" fill="#95c8eb"
         d="M 87.5,369.5 C 89.8439,370.672 92.1772,370.672 94.5,369.5C 95.782,370.958 95.782,372.292 94.5,373.5C 92.2758,372.059 89.9424,370.726 87.5,369.5 Z" />
   </g>
   <g>
      <path style="opacity:0.392" fill="#95c8eb"
         d="M 370.5,370.5 C 368.156,370.94 366.156,371.94 364.5,373.5C 363.402,372.399 363.235,371.066 364,369.5C 366.041,370.423 368.208,370.756 370.5,370.5 Z" />
   </g>
   <g>
      <path style="opacity:1" fill="#95c8eb"
         d="M 94.5,373.5 C 94.8294,376.228 94.1628,378.562 92.5,380.5C 92.4095,377.848 93.0762,375.515 94.5,373.5 Z" />
   </g>
   <g>
      <path style="opacity:0.114" fill="#95c8eb"
         d="M 364.5,373.5 C 365.924,375.515 366.59,377.848 366.5,380.5C 364.837,378.562 364.171,376.228 364.5,373.5 Z" />
   </g>
   <g>
      <path style="opacity:0.922" fill="#95c8eb"
         d="M 91.5,383.5 C 91.4098,387.214 90.4098,390.548 88.5,393.5C 88.8993,389.884 89.8993,386.55 91.5,383.5 Z" />
   </g>
   <g>
      <path style="opacity:0.922" fill="#95c8eb"
         d="M 367.5,383.5 C 369.101,386.55 370.101,389.884 370.5,393.5C 368.59,390.548 367.59,387.214 367.5,383.5 Z" />
   </g>
   <g>
      <path style="opacity:0.28" fill="#95c8eb"
         d="M 102.5,411.5 C 101.674,407.018 101.174,402.351 101,397.5C 100.392,399.066 99.5585,400.4 98.5,401.5C 99.1151,397.153 100.615,393.153 103,389.5C 102.753,396.804 102.586,404.137 102.5,411.5 Z" />
   </g>
   <g>
      <path style="opacity:0.28" fill="#95c8eb"
         d="M 360.5,401.5 C 359.442,400.4 358.608,399.066 358,397.5C 357.826,402.351 357.326,407.018 356.5,411.5C 356.414,404.137 356.247,396.804 356,389.5C 358.385,393.153 359.885,397.153 360.5,401.5 Z" />
   </g>
   <g>
      <path style="opacity:0.753" fill="#95c8eb"
         d="M 88.5,404.5 C 90.7638,405.219 93.0971,405.552 95.5,405.5C 94.7261,406.147 93.7261,406.48 92.5,406.5C 90.6455,406.66 89.3121,405.993 88.5,404.5 Z" />
   </g>
   <g>
      <path style="opacity:0.949" fill="#95c8eb"
         d="M 361.5,403.5 C 363.882,405.046 366.549,405.713 369.5,405.5C 366.282,407.184 363.615,406.517 361.5,403.5 Z" />
   </g>
   <g>
      <path style="opacity:0.906" fill="#95c8eb"
         d="M 102.5,411.5 C 104.479,413.168 106.812,413.834 109.5,413.5C 107.712,414.622 105.712,414.789 103.5,414C 102.748,413.329 102.414,412.496 102.5,411.5 Z" />
   </g>
   <g>
      <path style="opacity:0.024" fill="#95c8eb"
         d="M 356.5,411.5 C 356.586,412.496 356.252,413.329 355.5,414C 353.288,414.789 351.288,414.622 349.5,413.5C 352.188,413.834 354.521,413.168 356.5,411.5 Z" />
   </g>
   <g>
      <path style="opacity:0.03" fill="#95c8eb"
         d="M 159.5,412.5 C 160.946,418.274 161.612,424.274 161.5,430.5C 160.19,424.712 159.523,418.712 159.5,412.5 Z" />
   </g>
   <g>
      <path style="opacity:0.018" fill="#95c8eb"
         d="M 299.5,411.5 C 299.546,418.05 298.879,424.383 297.5,430.5C 297.454,423.95 298.121,417.617 299.5,411.5 Z" />
   </g>
   <g>
      <path style="opacity:0.388" fill="#95c8eb"
         d="M 161.5,430.5 C 164.194,441.971 166.527,453.637 168.5,465.5C 164.779,454.227 162.445,442.56 161.5,430.5 Z" />
   </g>
   <g>
      <path style="opacity:0.275" fill="#95c8eb"
         d="M 297.5,430.5 C 296.555,442.56 294.221,454.227 290.5,465.5C 292.473,453.637 294.806,441.971 297.5,430.5 Z" />
   </g>
   <g>
      <path style="opacity:0.02" fill="#95c8eb"
         d="M 168.5,465.5 C 172.437,474.982 174.604,484.982 175,495.5C 175.667,505.833 175.667,516.167 175,526.5C 174.79,528.058 174.29,529.391 173.5,530.5C 174.718,508.572 173.051,486.905 168.5,465.5 Z" />
   </g>
   <g>
      <path style="opacity:0.02" fill="#95c8eb"
         d="M 290.5,465.5 C 285.949,486.905 284.282,508.572 285.5,530.5C 284.71,529.391 284.21,528.058 284,526.5C 282.789,509.031 283.789,491.698 287,474.5C 287.9,471.282 289.067,468.282 290.5,465.5 Z" />
   </g>
   <g>
      <path style="opacity:0.329" fill="#95c8eb"
         d="M 171.5,546.5 C 171.504,559.205 172.171,571.872 173.5,584.5C 170.711,571.923 170.044,559.256 171.5,546.5 Z" />
   </g>
   <g>
      <path style="opacity:0.486" fill="#95c8eb"
         d="M 285.5,584.5 C 281.83,603.517 277.997,622.517 274,641.5C 272.195,655.817 272.028,670.15 273.5,684.5C 272.732,683.737 272.232,682.737 272,681.5C 271.237,667.474 271.571,653.474 273,639.5C 276.414,620.858 280.58,602.525 285.5,584.5 Z" />
   </g>
   <g>
      <path style="opacity:0.533" fill="#95c8eb"
         d="M 173.5,584.5 C 179.867,605.992 184.367,627.992 187,650.5C 187.821,663.201 187.488,675.868 186,688.5C 184.857,693.453 182.69,697.786 179.5,701.5C 181.823,696.366 183.656,691.033 185,685.5C 186.388,674.196 186.721,662.863 186,651.5C 182.539,629.028 178.372,606.695 173.5,584.5 Z" />
   </g>
   <g>
      <path style="opacity:0.047" fill="#95c8eb"
         d="M 273.5,685.5 C 275.278,690.825 277.278,696.158 279.5,701.5C 275.351,697.061 273.351,691.728 273.5,685.5 Z" />
   </g>
   <g>
      <path style="opacity:0.231" fill="#95c8eb"
         d="M 179.5,701.5 C 178.921,704.331 177.588,706.664 175.5,708.5C 176.079,705.669 177.412,703.336 179.5,701.5 Z" />
   </g>
   <g>
      <path style="opacity:0.231" fill="#95c8eb"
         d="M 279.5,701.5 C 281.25,702.659 282.25,704.326 282.5,706.5C 280.75,705.341 279.75,703.674 279.5,701.5 Z" />
   </g>
   <g>
      <path style="opacity:0.769" fill="#95c8eb"
         d="M 173.5,712.5 C 172.886,716.135 172.552,719.802 172.5,723.5C 171.098,719.71 171.431,716.044 173.5,712.5 Z" />
   </g>
   <g>
      <path style="opacity:0.769" fill="#95c8eb"
         d="M 285.5,712.5 C 287.569,716.044 287.902,719.71 286.5,723.5C 286.448,719.802 286.114,716.135 285.5,712.5 Z" />
   </g>
   <g>
      <path style="opacity:0.855" fill="#95c8eb"
         d="M 173.5,726.5 C 175.027,726.427 176.027,727.094 176.5,728.5C 174.973,728.573 173.973,727.906 173.5,726.5 Z" />
   </g>
   <g>
      <path style="opacity:1" fill="#95c8eb"
         d="M 238.5,5.5 C 240.214,6.73838 242.214,7.40505 244.5,7.5C 244.973,8.90632 245.973,9.57298 247.5,9.5C 247.973,10.9063 248.973,11.573 250.5,11.5C 251.5,11.8333 252.167,12.5 252.5,13.5C 253.08,15.7488 254.413,17.4154 256.5,18.5C 256.427,20.0269 257.094,21.0269 258.5,21.5C 259.338,21.8417 259.672,22.5084 259.5,23.5C 262.031,32.3011 263.031,41.3011 262.5,50.5C 264.514,50.3915 266.18,51.0582 267.5,52.5C 267.533,56.8689 267.2,61.2022 266.5,65.5C 265.069,66.7804 264.402,68.4471 264.5,70.5C 264.262,72.4044 263.262,73.7377 261.5,74.5C 260.167,74.5 258.833,74.5 257.5,74.5C 256.334,83.9887 256.334,93.322 257.5,102.5C 268.526,112.509 281.526,118.509 296.5,120.5C 297.091,121.151 297.757,121.818 298.5,122.5C 296.955,123.452 295.288,123.785 293.5,123.5C 278.167,121.583 265.001,115.25 254,104.5C 253.316,99.1778 252.816,93.8444 252.5,88.5C 253.806,83.3839 254.473,78.0506 254.5,72.5C 254.281,71.325 254.614,70.325 255.5,69.5C 257.071,70.3094 258.738,70.6427 260.5,70.5C 261.617,65.8102 262.95,61.1435 264.5,56.5C 263.319,53.2038 261.486,53.2038 259,56.5C 258.892,46.7741 258.225,37.1074 257,27.5C 254.646,22.1419 251.146,17.6419 246.5,14C 227.196,3.54453 212.363,8.04453 202,27.5C 199.464,37.0601 198.797,46.7268 200,56.5C 198.556,54.8446 196.722,54.178 194.5,54.5C 195.287,59.6955 196.787,64.6955 199,69.5C 200.458,70.7468 201.958,70.7468 203.5,69.5C 206.852,81.0259 207.352,92.6926 205,104.5C 197.012,111.913 187.845,117.413 177.5,121C 154.719,123.458 140.219,135.624 134,157.5C 133.245,167.188 133.411,176.854 134.5,186.5C 132.245,200.45 130.412,214.45 129,228.5C 124.673,242.149 120.34,255.815 116,269.5C 115.818,292.396 113.485,315.063 109,337.5C 104.046,340.785 99.3797,344.452 95,348.5C 92.3266,354.207 90.8266,360.207 90.5,366.5C 91.8221,366.67 92.9887,366.337 94,365.5C 95.1268,362.623 95.7935,359.623 96,356.5C 97.3333,355.167 98.6667,353.833 100,352.5C 100.686,359.875 100.353,367.208 99,374.5C 96.1044,382.522 93.6044,390.688 91.5,399C 91.6801,401.241 92.5135,401.741 94,400.5C 97.0565,392.054 100.39,383.721 104,375.5C 106.853,372.833 108.687,373.5 109.5,377.5C 106.762,388.055 106.095,398.722 107.5,409.5C 108.086,409.291 108.586,408.957 109,408.5C 109.686,397.503 111.52,386.836 114.5,376.5C 115.833,376.5 117.167,376.5 118.5,376.5C 118.172,387.014 118.506,397.347 119.5,407.5C 120.496,407.586 121.329,407.252 122,406.5C 122.791,396.178 123.291,385.845 123.5,375.5C 125.5,375.5 127.5,375.5 129.5,375.5C 130.399,381.969 131.899,388.302 134,394.5C 133.794,386.858 133.628,379.191 133.5,371.5C 133.975,367.857 134.308,364.19 134.5,360.5C 133.792,354.481 133.292,348.481 133,342.5C 135.181,334.776 137.514,327.109 140,319.5C 145.788,306.802 150.788,293.802 155,280.5C 157.38,268.936 159.047,257.269 160,245.5C 162.67,234.155 165.336,222.822 168,211.5C 168.84,224.869 171.506,237.869 176,250.5C 176.282,267.197 175.616,283.863 174,300.5C 170.932,327.181 167.599,353.847 164,380.5C 162.35,414.3 166.683,447.3 177,479.5C 178.499,496.139 178.833,512.806 178,529.5C 174.587,549.537 174.92,569.537 179,589.5C 182.491,603.797 185.824,618.131 189,632.5C 190.726,643.264 191.56,654.097 191.5,665C 192.538,682.516 188.038,698.35 178,712.5C 176.372,716.325 176.205,720.158 177.5,724C 183.042,726.376 188.709,726.876 194.5,725.5C 198.262,728.21 201.929,728.043 205.5,725C 208.1,721.403 210.266,717.57 212,713.5C 211.905,707.91 212.905,702.577 215,697.5C 219.396,695.606 221.563,692.272 221.5,687.5C 220.647,683.437 219.48,679.437 218,675.5C 217.233,664.569 216.066,653.736 214.5,643C 214.483,623.576 216.649,604.409 221,585.5C 221.924,567.185 220.758,549.018 217.5,531C 217.667,528.5 217.833,526 218,523.5C 220.849,516.42 222.849,509.087 224,501.5C 223.509,458.172 223.842,414.838 225,371.5C 227.801,372.795 230.634,372.795 233.5,371.5C 235.167,414.831 235.667,458.164 235,501.5C 236.876,511.612 239.043,521.612 241.5,531.5C 238.217,549.349 237.05,567.349 238,585.5C 242.108,603.935 244.275,622.602 244.5,641.5C 243.831,652.987 242.665,664.32 241,675.5C 239.52,679.437 238.353,683.437 237.5,687.5C 237.515,689.634 238.015,691.634 239,693.5C 242.393,695.227 244.726,697.894 246,701.5C 245.469,710.91 248.303,719.077 254.5,726C 257.993,728.136 261.326,727.969 264.5,725.5C 270.194,726.147 275.861,725.647 281.5,724C 282.795,720.158 282.628,716.325 281,712.5C 277.145,706.79 273.812,700.79 271,694.5C 266.726,673.933 266.393,653.266 270,632.5C 273.176,618.131 276.509,603.797 280,589.5C 283.218,572.975 284.218,556.309 283,539.5C 280.002,519.574 279.669,499.574 282,479.5C 292.205,447.603 296.539,414.936 295,381.5C 291.53,354.494 288.197,327.494 285,300.5C 283.344,283.874 282.677,267.207 283,250.5C 287.59,237.883 290.257,224.883 291,211.5C 296.764,234.224 301.097,257.224 304,280.5C 308.212,293.802 313.212,306.802 319,319.5C 321.488,327.12 323.822,334.787 326,342.5C 325.708,348.481 325.208,354.481 324.5,360.5C 324.692,364.19 325.025,367.857 325.5,371.5C 325.429,379.197 325.262,386.863 325,394.5C 327.101,388.302 328.601,381.969 329.5,375.5C 331.5,375.5 333.5,375.5 335.5,375.5C 335.5,379.167 335.5,382.833 335.5,386.5C 335.735,393.354 336.402,400.021 337.5,406.5C 338.006,408.105 338.673,408.439 339.5,407.5C 340.494,397.347 340.828,387.014 340.5,376.5C 341.833,376.5 343.167,376.5 344.5,376.5C 347.48,386.833 349.313,397.5 350,408.5C 350.414,408.957 350.914,409.291 351.5,409.5C 351.833,406.667 352.167,403.833 352.5,401C 351.826,391.788 350.826,382.621 349.5,373.5C 351.722,373.178 353.556,373.845 355,375.5C 358.392,383.009 361.392,390.675 364,398.5C 365.24,401.917 366.407,402.083 367.5,399C 365.401,390.704 362.901,382.537 360,374.5C 358.5,367.516 358.334,360.516 359.5,353.5C 360.814,354.313 361.981,355.313 363,356.5C 363.206,359.623 363.873,362.623 365,365.5C 366.011,366.337 367.178,366.67 368.5,366.5C 367.979,360.707 366.812,355.04 365,349.5C 360.365,345.019 355.365,341.019 350,337.5C 345.487,315.067 343.153,292.401 343,269.5C 338.66,255.815 334.327,242.149 330,228.5C 328.634,214.606 326.801,200.773 324.5,187C 325.551,176.849 325.717,166.682 325,156.5C 323.923,153.101 322.756,149.767 321.5,146.5C 322.172,145.733 323.005,145.066 324,144.5C 324.2,146.32 325.034,147.653 326.5,148.5C 326.723,152.162 327.723,155.495 329.5,158.5C 330.833,166.5 330.833,174.5 329.5,182.5C 328.356,187.888 328.689,193.221 330.5,198.5C 331.468,200.607 331.802,202.941 331.5,205.5C 331.614,213.417 332.614,221.084 334.5,228.5C 334.432,232.57 335.432,236.237 337.5,239.5C 337.402,241.553 338.069,243.22 339.5,244.5C 339.054,247.01 339.72,249.01 341.5,250.5C 341.12,252.698 341.787,254.365 343.5,255.5C 344.404,256.209 344.737,257.209 344.5,258.5C 344.171,261.228 344.837,263.562 346.5,265.5C 347.477,268.287 347.81,271.287 347.5,274.5C 347.334,283.173 347.5,291.84 348,300.5C 348.149,305.101 348.982,309.434 350.5,313.5C 351.468,315.607 351.802,317.941 351.5,320.5C 351.125,325.911 352.125,330.911 354.5,335.5C 354.973,336.906 355.973,337.573 357.5,337.5C 357.973,338.906 358.973,339.573 360.5,339.5C 361.262,341.262 362.596,342.262 364.5,342.5C 366.822,343.802 368.155,345.802 368.5,348.5C 368.12,350.698 368.787,352.365 370.5,353.5C 371.434,354.568 371.768,355.901 371.5,357.5C 371.5,361.5 371.5,365.5 371.5,369.5C 371.5,370.167 371.167,370.5 370.5,370.5C 368.208,370.756 366.041,370.423 364,369.5C 363.235,371.066 363.402,372.399 364.5,373.5C 364.171,376.228 364.837,378.562 366.5,380.5C 367.404,381.209 367.737,382.209 367.5,383.5C 367.59,387.214 368.59,390.548 370.5,393.5C 372.427,396.137 372.927,399.137 372,402.5C 371.623,403.942 370.79,404.942 369.5,405.5C 366.549,405.713 363.882,405.046 361.5,403.5C 360.662,403.158 360.328,402.492 360.5,401.5C 359.885,397.153 358.385,393.153 356,389.5C 356.247,396.804 356.414,404.137 356.5,411.5C 354.521,413.168 352.188,413.834 349.5,413.5C 348.167,412.833 347.167,411.833 346.5,410.5C 346.061,404.115 345.228,397.781 344,391.5C 343.501,397.491 343.334,403.491 343.5,409.5C 340.778,411.773 337.778,412.107 334.5,410.5C 333.662,410.158 333.328,409.492 333.5,408.5C 333.605,401.095 332.938,393.762 331.5,386.5C 330.093,389.721 329.093,393.055 328.5,396.5C 325.251,400.687 322.584,400.354 320.5,395.5C 321.354,386.195 321.687,376.861 321.5,367.5C 321.291,359.973 321.624,352.473 322.5,345C 322.366,341.759 321.366,338.925 319.5,336.5C 317.067,324.861 313.067,313.861 307.5,303.5C 307.598,301.447 306.931,299.78 305.5,298.5C 304.069,297.22 303.402,295.553 303.5,293.5C 303.741,291.102 303.074,289.102 301.5,287.5C 301.102,283.239 300.102,279.239 298.5,275.5C 297.539,273.735 297.205,271.735 297.5,269.5C 297.522,257.523 295.689,245.856 292,234.5C 291.51,235.793 291.343,237.127 291.5,238.5C 289.926,240.102 289.259,242.102 289.5,244.5C 286.682,250.031 285.349,256.031 285.5,262.5C 285.363,266.447 286.03,270.114 287.5,273.5C 288.488,278.64 288.821,283.974 288.5,289.5C 286.995,293.43 287.328,297.097 289.5,300.5C 289.693,310.065 290.693,319.398 292.5,328.5C 294.055,335.718 295.055,343.052 295.5,350.5C 295.856,359.049 296.856,367.382 298.5,375.5C 299.495,387.322 299.828,399.322 299.5,411.5C 298.121,417.617 297.454,423.95 297.5,430.5C 294.806,441.971 292.473,453.637 290.5,465.5C 289.067,468.282 287.9,471.282 287,474.5C 283.789,491.698 282.789,509.031 284,526.5C 284.21,528.058 284.71,529.391 285.5,530.5C 289.44,548.494 289.44,566.494 285.5,584.5C 280.58,602.525 276.414,620.858 273,639.5C 271.571,653.474 271.237,667.474 272,681.5C 272.232,682.737 272.732,683.737 273.5,684.5C 273.5,684.833 273.5,685.167 273.5,685.5C 273.351,691.728 275.351,697.061 279.5,701.5C 279.75,703.674 280.75,705.341 282.5,706.5C 284.008,708.181 285.008,710.181 285.5,712.5C 286.114,716.135 286.448,719.802 286.5,723.5C 286.33,726.204 284.997,727.871 282.5,728.5C 275.968,729.046 269.634,730.046 263.5,731.5C 260.833,732.833 258.167,732.833 255.5,731.5C 255.027,730.094 254.027,729.427 252.5,729.5C 251.833,728.167 250.833,727.167 249.5,726.5C 245.6,722.699 243.266,718.033 242.5,712.5C 244.098,705.607 242.098,700.274 236.5,696.5C 233.749,694.451 232.416,691.618 232.5,688C 232.646,685.24 233.313,682.74 234.5,680.5C 235.793,679.158 236.626,677.491 237,675.5C 237.499,671.179 237.666,666.846 237.5,662.5C 239.04,660.162 239.706,657.495 239.5,654.5C 239.5,654.167 239.5,653.833 239.5,653.5C 241.412,647.419 241.912,641.086 241,634.5C 239.619,616.86 237.119,599.527 233.5,582.5C 233.5,575.167 233.5,567.833 233.5,560.5C 234.884,555.056 235.55,549.389 235.5,543.5C 235.5,543.167 235.5,542.833 235.5,542.5C 237.392,536.754 237.892,530.754 237,524.5C 233.598,515.823 231.598,506.823 231,497.5C 230.364,478.491 230.531,459.491 231.5,440.5C 230.627,423.85 230.294,407.184 230.5,390.5C 229.833,371.833 229.167,371.833 228.5,390.5C 228.706,407.184 228.373,423.85 227.5,440.5C 228.46,458.825 228.627,477.158 228,495.5C 227.413,503.929 226.247,512.262 224.5,520.5C 222.022,523.811 221.022,527.645 221.5,532C 221.304,535.805 221.97,539.305 223.5,542.5C 223.5,543.167 223.5,543.833 223.5,544.5C 223.444,549.731 224.111,554.731 225.5,559.5C 225.5,567.167 225.5,574.833 225.5,582.5C 224.513,587.32 223.847,592.32 223.5,597.5C 223.784,599.415 223.451,601.081 222.5,602.5C 221.343,605.273 220.676,608.273 220.5,611.5C 219.075,621.776 218.075,632.109 217.5,642.5C 217.454,646.428 218.12,650.095 219.5,653.5C 220.657,656.273 221.324,659.273 221.5,662.5C 221.334,666.846 221.501,671.179 222,675.5C 222.374,677.491 223.207,679.158 224.5,680.5C 224.942,684.154 225.276,687.821 225.5,691.5C 225.727,693.933 224.727,695.599 222.5,696.5C 216.902,700.274 214.902,705.607 216.5,712.5C 215.734,718.033 213.4,722.699 209.5,726.5C 208.167,727.167 207.167,728.167 206.5,729.5C 204.973,729.427 203.973,730.094 203.5,731.5C 198.448,732.579 193.448,732.246 188.5,730.5C 184.664,729.622 180.664,728.956 176.5,728.5C 176.027,727.094 175.027,726.427 173.5,726.5C 172.89,725.609 172.557,724.609 172.5,723.5C 172.552,719.802 172.886,716.135 173.5,712.5C 173.66,710.847 174.326,709.514 175.5,708.5C 177.588,706.664 178.921,704.331 179.5,701.5C 182.69,697.786 184.857,693.453 186,688.5C 187.488,675.868 187.821,663.201 187,650.5C 184.367,627.992 179.867,605.992 173.5,584.5C 172.171,571.872 171.504,559.205 171.5,546.5C 171.255,540.916 171.922,535.583 173.5,530.5C 174.29,529.391 174.79,528.058 175,526.5C 175.667,516.167 175.667,505.833 175,495.5C 174.604,484.982 172.437,474.982 168.5,465.5C 166.527,453.637 164.194,441.971 161.5,430.5C 161.612,424.274 160.946,418.274 159.5,412.5C 159.171,399.989 159.505,387.655 160.5,375.5C 162.144,367.382 163.144,359.049 163.5,350.5C 163.945,343.052 164.945,335.718 166.5,328.5C 168.307,319.398 169.307,310.065 169.5,300.5C 171.672,297.097 172.005,293.43 170.5,289.5C 170.179,283.974 170.512,278.64 171.5,273.5C 173.978,265.7 174.145,257.7 172,249.5C 171.243,247.685 170.41,246.019 169.5,244.5C 169.295,241.012 168.461,237.679 167,234.5C 163.197,247.882 161.03,261.549 160.5,275.5C 158.898,279.239 157.898,283.239 157.5,287.5C 155.926,289.102 155.259,291.102 155.5,293.5C 154.069,294.78 153.402,296.447 153.5,298.5C 152.069,299.78 151.402,301.447 151.5,303.5C 145.042,315.776 140.209,328.776 137,342.5C 137.05,357.984 137.55,373.318 138.5,388.5C 139.767,391.272 139.767,393.939 138.5,396.5C 136.283,397.369 133.95,397.702 131.5,397.5C 130.833,397.5 130.5,397.167 130.5,396.5C 129.907,393.055 128.907,389.721 127.5,386.5C 126.062,393.762 125.395,401.095 125.5,408.5C 125.573,410.027 124.906,411.027 123.5,411.5C 120.487,411.893 117.82,411.226 115.5,409.5C 115.666,403.491 115.499,397.491 115,391.5C 113.513,397.754 112.68,404.088 112.5,410.5C 111.833,411.833 110.833,412.833 109.5,413.5C 106.812,413.834 104.479,413.168 102.5,411.5C 102.586,404.137 102.753,396.804 103,389.5C 100.615,393.153 99.1151,397.153 98.5,401.5C 98.2624,403.404 97.2624,404.738 95.5,405.5C 93.0971,405.552 90.7638,405.219 88.5,404.5C 85.8333,400.833 85.8333,397.167 88.5,393.5C 90.4098,390.548 91.4098,387.214 91.5,383.5C 91.2627,382.209 91.596,381.209 92.5,380.5C 94.1628,378.562 94.8294,376.228 94.5,373.5C 95.782,372.292 95.782,370.958 94.5,369.5C 92.1772,370.672 89.8439,370.672 87.5,369.5C 87.5,365.5 87.5,361.5 87.5,357.5C 87.2322,355.901 87.5655,354.568 88.5,353.5C 90.2132,352.365 90.8799,350.698 90.5,348.5C 90.3284,347.508 90.6618,346.842 91.5,346.5C 94.1667,344.5 96.5,342.167 98.5,339.5C 100.027,339.573 101.027,338.906 101.5,337.5C 103.027,337.573 104.027,336.906 104.5,335.5C 106.875,330.911 107.875,325.911 107.5,320.5C 107.198,317.941 107.532,315.607 108.5,313.5C 110.082,310.124 110.749,306.458 110.5,302.5C 111.41,290.334 112.077,278.001 112.5,265.5C 114.163,263.562 114.829,261.228 114.5,258.5C 116.655,256.383 117.655,253.716 117.5,250.5C 119.885,247.347 121.218,243.68 121.5,239.5C 123.568,236.237 124.568,232.57 124.5,228.5C 124.194,225.615 124.527,222.948 125.5,220.5C 126.889,215.731 127.556,210.731 127.5,205.5C 127.198,202.941 127.532,200.607 128.5,198.5C 129.662,194.551 130.328,190.384 130.5,186C 129.668,176.852 129.334,167.685 129.5,158.5C 131.04,156.162 131.706,153.495 131.5,150.5C 133.834,148.824 134.834,146.491 134.5,143.5C 135.906,143.027 136.573,142.027 136.5,140.5C 136.427,138.973 137.094,137.973 138.5,137.5C 140.914,136.089 142.581,134.089 143.5,131.5C 145.749,130.92 147.415,129.587 148.5,127.5C 150.027,127.573 151.027,126.906 151.5,125.5C 151.842,124.662 152.508,124.328 153.5,124.5C 155.027,124.573 156.027,123.906 156.5,122.5C 158.297,121.27 160.297,120.604 162.5,120.5C 177.405,118.324 190.405,112.324 201.5,102.5C 202.735,93.3145 202.735,83.9812 201.5,74.5C 200.167,74.5 198.833,74.5 197.5,74.5C 195.738,73.7377 194.738,72.4044 194.5,70.5C 192.244,64.7246 191.244,58.7246 191.5,52.5C 192.5,51.8333 193.5,51.1667 194.5,50.5C 196.45,45.2649 197.117,39.5982 196.5,33.5C 198.277,30.4954 199.277,27.1621 199.5,23.5C 199.328,22.5084 199.662,21.8417 200.5,21.5C 201.906,21.0269 202.573,20.0269 202.5,18.5C 205.833,15.8333 208.833,12.8333 211.5,9.5C 213.027,9.57298 214.027,8.90632 214.5,7.5C 222.381,5.78077 230.381,5.1141 238.5,5.5 Z" />
   </g>
   <g>
      <path style="opacity:0.022" fill="#95c8eb"
         d="M 222.5,696.5 C 219.102,701.365 217.102,706.698 216.5,712.5C 214.902,705.607 216.902,700.274 222.5,696.5 Z" />
   </g>
   <g>
      <path style="opacity:0.265" fill="#95c8eb"
         d="M 236.5,696.5 C 242.098,700.274 244.098,705.607 242.5,712.5C 241.898,706.698 239.898,701.365 236.5,696.5 Z" />
   </g>
   <g>
      <path style="opacity:0.31" fill="#95c8eb"
         d="M 224.5,680.5 C 226.441,684.069 226.774,687.735 225.5,691.5C 225.276,687.821 224.942,684.154 224.5,680.5 Z" />
   </g>
   <g>
      <path style="opacity:1" fill="#95c8eb"
         d="M 237.5,662.5 C 237.666,666.846 237.499,671.179 237,675.5C 236.626,677.491 235.793,679.158 234.5,680.5C 235.143,674.31 236.143,668.31 237.5,662.5 Z" />
   </g>
   <g>
      <path style="opacity:0.247" fill="#95c8eb"
         d="M 221.5,662.5 C 222.857,668.31 223.857,674.31 224.5,680.5C 223.207,679.158 222.374,677.491 222,675.5C 221.501,671.179 221.334,666.846 221.5,662.5 Z" />
   </g>
   <g>
      <path style="opacity:1" fill="#95c8eb"
         d="M 239.5,654.5 C 239.706,657.495 239.04,660.162 237.5,662.5C 237.565,659.572 238.232,656.905 239.5,654.5 Z" />
   </g>
   <g>
      <path style="opacity:0.596" fill="#95c8eb"
         d="M 220.5,611.5 C 220.833,611.5 221.167,611.5 221.5,611.5C 220.264,625.47 219.597,639.47 219.5,653.5C 218.12,650.095 217.454,646.428 217.5,642.5C 218.075,632.109 219.075,621.776 220.5,611.5 Z" />
   </g>
   <g>
      <path style="opacity:0.784" fill="#95c8eb"
         d="M 222.5,602.5 C 222.632,605.57 222.299,608.57 221.5,611.5C 221.167,611.5 220.833,611.5 220.5,611.5C 220.676,608.273 221.343,605.273 222.5,602.5 Z" />
   </g>
   <g>
      <path style="opacity:0.392" fill="#95c8eb"
         d="M 233.5,582.5 C 237.119,599.527 239.619,616.86 241,634.5C 241.912,641.086 241.412,647.419 239.5,653.5C 239.651,641.806 239.151,630.139 238,618.5C 236.04,606.539 234.54,594.539 233.5,582.5 Z" />
   </g>
   <g>
      <path style="opacity:0.239" fill="#95c8eb"
         d="M 225.5,582.5 C 225.904,587.783 225.238,592.783 223.5,597.5C 223.847,592.32 224.513,587.32 225.5,582.5 Z" />
   </g>
   <g>
      <path style="opacity:0.2" fill="#95c8eb"
         d="M 235.5,543.5 C 235.55,549.389 234.884,555.056 233.5,560.5C 233.45,554.611 234.116,548.944 235.5,543.5 Z" />
   </g>
   <g>
      <path style="opacity:0.337" fill="#95c8eb"
         d="M 223.5,544.5 C 225.031,549.25 225.698,554.25 225.5,559.5C 224.111,554.731 223.444,549.731 223.5,544.5 Z" />
   </g>
   <g>
      <path style="opacity:1" fill="#95c8eb"
         d="M 224.5,520.5 C 222.8,527.839 222.467,535.172 223.5,542.5C 221.97,539.305 221.304,535.805 221.5,532C 221.022,527.645 222.022,523.811 224.5,520.5 Z" />
   </g>
   <g>
      <path style="opacity:1" fill="#95c8eb"
         d="M 231.5,440.5 C 230.531,459.491 230.364,478.491 231,497.5C 231.598,506.823 233.598,515.823 237,524.5C 237.892,530.754 237.392,536.754 235.5,542.5C 235.364,539.449 235.698,536.449 236.5,533.5C 234.011,521.875 231.678,510.208 229.5,498.5C 228.578,506.127 226.911,513.46 224.5,520.5C 226.247,512.262 227.413,503.929 228,495.5C 228.627,477.158 228.46,458.825 227.5,440.5C 228.165,438.302 228.832,435.969 229.5,433.5C 230.168,435.969 230.835,438.302 231.5,440.5 Z" />
   </g>
   <g>
      <path style="opacity:0.004" fill="#95c8eb"
         d="M 343.5,409.5 C 343.126,411.95 341.626,412.95 339,412.5C 336.992,412.693 335.492,412.026 334.5,410.5C 335.492,412.026 336.992,412.693 339,412.5C 341.626,412.95 343.126,411.95 343.5,409.5 Z" />
   </g>
   <g>
      <path style="opacity:0.914" fill="#95c8eb"
         d="M 115.5,409.5 C 117.82,411.226 120.487,411.893 123.5,411.5C 121.372,412.629 119.039,412.796 116.5,412C 115.748,411.329 115.414,410.496 115.5,409.5 Z" />
   </g>
   <g>
      <path style="opacity:0.498" fill="#95c8eb"
         d="M 115.5,409.5 C 114.732,408.737 114.232,407.737 114,406.5C 113.79,408.058 113.29,409.391 112.5,410.5C 112.68,404.088 113.513,397.754 115,391.5C 115.499,397.491 115.666,403.491 115.5,409.5 Z" />
   </g>
   <g>
      <path style="opacity:0.929" fill="#95c8eb"
         d="M 346.5,410.5 C 345.71,409.391 345.21,408.058 345,406.5C 344.768,407.737 344.268,408.737 343.5,409.5C 343.334,403.491 343.501,397.491 344,391.5C 345.228,397.781 346.061,404.115 346.5,410.5 Z" />
   </g>
   <g>
      <path style="opacity:1" fill="#95c8eb"
         d="M 228.5,390.5 C 229.167,390.5 229.833,390.5 230.5,390.5C 230.294,407.184 230.627,423.85 231.5,440.5C 230.835,438.302 230.168,435.969 229.5,433.5C 228.832,435.969 228.165,438.302 227.5,440.5C 228.373,423.85 228.706,407.184 228.5,390.5 Z" />
   </g>
   <g>
      <path style="opacity:1" fill="#95c8eb"
         d="M 138.5,396.5 C 137.986,398.439 136.653,399.439 134.5,399.5C 132.962,399.547 131.962,398.88 131.5,397.5C 133.95,397.702 136.283,397.369 138.5,396.5 Z" />
   </g>
   <g>
      <path style="opacity:1" fill="#95c8eb"
         d="M 335.5,386.5 C 337.201,392.919 337.867,399.585 337.5,406.5C 336.402,400.021 335.735,393.354 335.5,386.5 Z" />
   </g>
   <g>
      <path style="opacity:0.886" fill="#95c8eb"
         d="M 333.5,408.5 C 332.016,403.747 331.182,398.747 331,393.5C 330.148,394.571 329.315,395.571 328.5,396.5C 329.093,393.055 330.093,389.721 331.5,386.5C 332.938,393.762 333.605,401.095 333.5,408.5 Z" />
   </g>
   <g>
      <path style="opacity:0.086" fill="#95c8eb"
         d="M 130.5,396.5 C 129.685,395.571 128.852,394.571 128,393.5C 127.818,398.747 126.984,403.747 125.5,408.5C 125.395,401.095 126.062,393.762 127.5,386.5C 128.907,389.721 129.907,393.055 130.5,396.5 Z" />
   </g>
   <g>
      <path style="opacity:1" fill="#95c8eb"
         d="M 344.5,376.5 C 343.167,376.5 341.833,376.5 340.5,376.5C 340.828,387.014 340.494,397.347 339.5,407.5C 339.5,396.833 339.5,386.167 339.5,375.5C 341.415,375.216 343.081,375.549 344.5,376.5 Z" />
   </g>
   <g>
      <path style="opacity:1" fill="#95c8eb"
         d="M 114.5,376.5 C 115.919,375.549 117.585,375.216 119.5,375.5C 119.5,386.167 119.5,396.833 119.5,407.5C 118.506,397.347 118.172,387.014 118.5,376.5C 117.167,376.5 115.833,376.5 114.5,376.5 Z" />
   </g>
   <g>
      <path style="opacity:1" fill="#95c8eb"
         d="M 325.5,371.5 C 326.317,373.969 326.817,376.635 327,379.5C 327.608,377.934 328.442,376.6 329.5,375.5C 328.601,381.969 327.101,388.302 325,394.5C 325.262,386.863 325.429,379.197 325.5,371.5 Z" />
   </g>
   <g>
      <path style="opacity:1" fill="#95c8eb"
         d="M 133.5,371.5 C 133.628,379.191 133.794,386.858 134,394.5C 131.899,388.302 130.399,381.969 129.5,375.5C 130.315,376.429 131.148,377.429 132,378.5C 132.186,375.964 132.686,373.631 133.5,371.5 Z" />
   </g>
   <g>
      <path style="opacity:1" fill="#95c8eb"
         d="M 230.5,390.5 C 229.833,390.5 229.167,390.5 228.5,390.5C 229.167,371.833 229.833,371.833 230.5,390.5 Z" />
   </g>
   <g>
      <path style="opacity:0.203" fill="#95c8eb"
         d="M 320.5,367.5 C 320.833,367.5 321.167,367.5 321.5,367.5C 321.687,376.861 321.354,386.195 320.5,395.5C 320.3,386.362 320.3,377.029 320.5,367.5 Z" />
   </g>
   <g>
      <path style="opacity:1" fill="#95c8eb"
         d="M 295.5,350.5 C 297.386,358.59 298.386,366.924 298.5,375.5C 296.856,367.382 295.856,359.049 295.5,350.5 Z" />
   </g>
   <g>
      <path style="opacity:1" fill="#95c8eb"
         d="M 163.5,350.5 C 163.144,359.049 162.144,367.382 160.5,375.5C 160.614,366.924 161.614,358.59 163.5,350.5 Z" />
   </g>
   <g>
      <path style="opacity:0.522" fill="#95c8eb"
         d="M 319.5,336.5 C 321.366,338.925 322.366,341.759 322.5,345C 321.624,352.473 321.291,359.973 321.5,367.5C 321.167,367.5 320.833,367.5 320.5,367.5C 320.601,357.148 320.267,346.815 319.5,336.5 Z" />
   </g>
   <g>
      <path style="opacity:0.886" fill="#95c8eb"
         d="M 289.5,300.5 C 291.262,309.609 292.262,318.942 292.5,328.5C 290.693,319.398 289.693,310.065 289.5,300.5 Z" />
   </g>
   <g>
      <path style="opacity:0.886" fill="#95c8eb"
         d="M 169.5,300.5 C 169.307,310.065 168.307,319.398 166.5,328.5C 166.738,318.942 167.738,309.609 169.5,300.5 Z" />
   </g>
   <g>
      <path style="opacity:0.175" fill="#95c8eb"
         d="M 307.5,303.5 C 313.067,313.861 317.067,324.861 319.5,336.5C 315.523,325.574 311.523,314.574 307.5,303.5 Z" />
   </g>
   <g>
      <path style="opacity:0.175" fill="#95c8eb"
         d="M 151.5,303.5 C 147.378,314.363 143.545,325.363 140,336.5C 138.622,353.799 138.122,371.132 138.5,388.5C 137.55,373.318 137.05,357.984 137,342.5C 140.209,328.776 145.042,315.776 151.5,303.5 Z" />
   </g>
   <g>
      <path style="opacity:0.467" fill="#95c8eb"
         d="M 305.5,298.5 C 306.931,299.78 307.598,301.447 307.5,303.5C 306.069,302.22 305.402,300.553 305.5,298.5 Z" />
   </g>
   <g>
      <path style="opacity:0.467" fill="#95c8eb"
         d="M 153.5,298.5 C 153.598,300.553 152.931,302.22 151.5,303.5C 151.402,301.447 152.069,299.78 153.5,298.5 Z" />
   </g>
   <g>
      <path style="opacity:0.439" fill="#95c8eb"
         d="M 155.5,293.5 C 155.598,295.553 154.931,297.22 153.5,298.5C 153.402,296.447 154.069,294.78 155.5,293.5 Z" />
   </g>
   <g>
      <path style="opacity:0.678" fill="#95c8eb"
         d="M 301.5,287.5 C 303.074,289.102 303.741,291.102 303.5,293.5C 302.262,291.786 301.595,289.786 301.5,287.5 Z" />
   </g>
   <g>
      <path style="opacity:0.678" fill="#95c8eb"
         d="M 157.5,287.5 C 157.405,289.786 156.738,291.786 155.5,293.5C 155.259,291.102 155.926,289.102 157.5,287.5 Z" />
   </g>
   <g>
      <path style="opacity:0.18" fill="#95c8eb"
         d="M 288.5,289.5 C 289.482,292.962 289.815,296.629 289.5,300.5C 287.328,297.097 286.995,293.43 288.5,289.5 Z" />
   </g>
   <g>
      <path style="opacity:0.18" fill="#95c8eb"
         d="M 170.5,289.5 C 172.005,293.43 171.672,297.097 169.5,300.5C 169.185,296.629 169.518,292.962 170.5,289.5 Z" />
   </g>
   <g>
      <path style="opacity:0.051" fill="#95c8eb"
         d="M 298.5,275.5 C 300.102,279.239 301.102,283.239 301.5,287.5C 299.584,283.837 298.584,279.837 298.5,275.5 Z" />
   </g>
   <g>
      <path style="opacity:0.051" fill="#95c8eb"
         d="M 160.5,275.5 C 160.416,279.837 159.416,283.837 157.5,287.5C 157.898,283.239 158.898,279.239 160.5,275.5 Z" />
   </g>
   <g>
      <path style="opacity:0.609" fill="#95c8eb"
         d="M 169.5,244.5 C 170.41,246.019 171.243,247.685 172,249.5C 174.145,257.7 173.978,265.7 171.5,273.5C 171.812,263.752 171.145,254.085 169.5,244.5 Z" />
   </g>
   <g>
      <path style="opacity:0.562" fill="#95c8eb"
         d="M 289.5,244.5 C 287.855,254.085 287.188,263.752 287.5,273.5C 286.03,270.114 285.363,266.447 285.5,262.5C 285.349,256.031 286.682,250.031 289.5,244.5 Z" />
   </g>
   <g>
      <path style="opacity:0.651" fill="#95c8eb"
         d="M 291.5,238.5 C 291.405,240.786 290.738,242.786 289.5,244.5C 289.259,242.102 289.926,240.102 291.5,238.5 Z" />
   </g>
   <g>
      <path style="opacity:0.475" fill="#95c8eb"
         d="M 297.5,269.5 C 296.039,259.071 294.039,248.737 291.5,238.5C 291.343,237.127 291.51,235.793 292,234.5C 295.689,245.856 297.522,257.523 297.5,269.5 Z" />
   </g>
   <g>
      <path style="opacity:0.475" fill="#95c8eb"
         d="M 169.5,244.5 C 168.4,242.723 167.566,240.723 167,238.5C 164.741,250.958 162.575,263.292 160.5,275.5C 161.03,261.549 163.197,247.882 167,234.5C 168.461,237.679 169.295,241.012 169.5,244.5 Z" />
   </g>
   <g>
      <path style="opacity:1" fill="#95c8eb"
         d="M 254.5,72.5 C 254.473,78.0506 253.806,83.3839 252.5,88.5C 252.376,82.9313 253.043,77.598 254.5,72.5 Z" />
   </g>
   <g>
      <path style="opacity:0.004" fill="#95c8eb"
         d="M 249.5,726.5 C 250.833,727.167 251.833,728.167 252.5,729.5C 250.5,729.5 249.5,728.5 249.5,726.5 Z" />
   </g>
   <g>
      <path style="opacity:0.004" fill="#95c8eb"
         d="M 209.5,726.5 C 209.5,728.5 208.5,729.5 206.5,729.5C 207.167,728.167 208.167,727.167 209.5,726.5 Z" />
   </g>
   <g>
      <path style="opacity:0.776" fill="#95c8eb"
         d="M 176.5,728.5 C 180.664,728.956 184.664,729.622 188.5,730.5C 185.15,730.665 181.817,730.498 178.5,730C 177.584,729.722 176.918,729.222 176.5,728.5 Z" />
   </g>
   <g>
      <path style="opacity:0.878" fill="#95c8eb"
         d="M 282.5,728.5 C 282.082,729.222 281.416,729.722 280.5,730C 274.839,730.633 269.172,731.133 263.5,731.5C 269.634,730.046 275.968,729.046 282.5,728.5 Z" />
   </g>
   <g>
      <path style="opacity:0.043" fill="#95c8eb"
         d="M 206.5,729.5 C 206.027,730.906 205.027,731.573 203.5,731.5C 203.973,730.094 204.973,729.427 206.5,729.5 Z" />
   </g>
   <g>
      <path style="opacity:0.584" fill="#95c8eb"
         d="M 252.5,729.5 C 254.027,729.427 255.027,730.094 255.5,731.5C 253.973,731.573 252.973,730.906 252.5,729.5 Z" />
   </g>
</svg>